<svg width="896" height="840" viewBox="0 0 896 840" fill="none" xmlns="http://www.w3.org/2000/svg">
<path d="M397.364 10.0175C360.628 12.4024 287.824 263.913 281.423 263.807C281.423 263.807 10.8913 313.543 10.0028 340.967C9.11438 368.391 217.899 537.584 217.899 537.584C217.899 537.584 161.483 791.839 180.584 825.306C199.685 858.773 450.671 659.831 450.671 659.831L692.328 756.048L714.539 631.013L677.224 505.977C677.224 505.977 880.234 276.822 844.252 263.807C808.27 250.793 576.386 249.863 576.386 249.863C576.386 249.863 434.101 7.63259 397.364 10.0175Z" fill="#F7EDAF" stroke="black" stroke-width="20"/>
<path d="M537.738 183.858C455.068 177.605 381.122 179.967 298.302 189.901C298.302 189.901 290.751 191.295 283.643 221.044C276.535 250.792 283.643 259.623 283.643 259.623C394.882 245.012 462.045 241.901 572.831 242.89L572.558 242.042C564.052 215.625 561.985 209.206 537.738 183.858Z" fill="white" stroke="black" stroke-width="20"/>
<path d="M388.924 371.645V413.943" stroke="black" stroke-width="30" stroke-linecap="round"/>
<path d="M405.657 495C475.842 516.354 511.487 517.578 566.465 495" stroke="black" stroke-width="20" stroke-linecap="round"/>
<path d="M566.168 366.067L567.501 413.479" stroke="black" stroke-width="30" stroke-linecap="round"/>
<path d="M688.332 769.528C688.331 752.794 739.417 489.243 750.523 482.271C761.628 475.299 870.019 485.989 880.68 498.539C891.341 511.089 828.264 784.867 819.377 792.304C810.49 799.741 688.332 786.261 688.332 769.528Z" fill="black" fill-opacity="0.59" stroke="black" stroke-width="20"/>
<path d="M782.504 511.089L778.95 531.541" stroke="black" stroke-width="30" stroke-linecap="round"/>
<path d="M765.624 562.22L777.174 565.009" stroke="black" stroke-width="20" stroke-linecap="round"/>
<path d="M816.262 624.504C827.81 606.376 849.579 616.709 876.234 636.231C902.889 655.753 867.348 748.254 859.798 763.128C852.248 778.001 842.473 793.697 823.37 780.219C823.37 780.219 766.957 750.005 779.392 730.949C791.827 711.893 832.256 725.37 827.814 722.117C823.372 718.863 782.944 694.23 792.718 674.241C802.493 654.252 835.81 677.03 840.694 674.241C845.579 671.453 804.714 642.632 816.262 624.504Z" fill="#F6ECAF" stroke="black" stroke-width="20"/>
<path d="M293.86 235.918C387.608 216.611 460.23 215.878 554.174 222.904" stroke="#001EFF" stroke-width="10" stroke-linecap="round"/>
<path d="M297.414 213.607C392.273 200.561 449.03 197.727 543.957 204.516" stroke="#FF0000" stroke-width="10" stroke-linecap="round"/>
</svg>
